<?xml version="1.0" ?>
<svg height="20" id="Layer_1" viewBox="0 0 512 512" width="15" xmlns="http://www.w3.org/2000/svg">
    <path fill="#626262" d="M439.16,40.52H144.3a41.83,41.83,0,0,0-41.55,37.57H37.1a6,6,0,0,0-6,6V334.79a41.82,41.82,0,0,0,41.77,41.76H174v88.89a6,6,0,0,0,6,6H474.9a6,6,0,0,0,6-6V82.29A41.82,41.82,0,0,0,439.16,40.52Zm-396,294.27V90.15h59.39V334.79a29.7,29.7,0,1,1-59.39,0Zm59,29.7a41.65,41.65,0,0,0,12.44-29.7V82.29a29.7,29.7,0,1,1,59.4,0v282.2Zm366.7,94.92H186.06V82.29a41.61,41.61,0,0,0-12.44-29.7H439.16a29.74,29.74,0,0,1,29.7,29.7V459.41Z"/>
    <path fill="#626262" d="M431.75,130.62H229a6,6,0,0,0,0,12.06H431.75a6,6,0,1,0,0-12.06Z"/>
    <path fill="#626262" d="M431.75,184.19H229a6,6,0,0,0,0,12.06H431.75a6,6,0,1,0,0-12.06Z"/>
    <path fill="#626262" d="M431.75,237.76H229a6,6,0,0,0,0,12.06H431.75a6,6,0,1,0,0-12.06Z"/>
    <path fill="#626262" d="M431.75,291.34H229a6,6,0,1,0,0,12.06H431.75a6,6,0,1,0,0-12.06Z"/>
    <path fill="#626262" d="M361.36,344.92H229A6,6,0,1,0,229,357H361.36a6,6,0,0,0,0-12.06Z"/>
</svg>